HIERARCHY
ROOT Hips
{
	OFFSET 0.000000 0.000000 0.000000
	CHANNELS 6 Xposition Yposition Zposition Zrotation Yrotation Xrotation 
	JOINT LHipJoint
	{
		OFFSET 0.000000 0.000000 0.000000
		CHANNELS 3 Zrotation Yrotation Xrotation
		JOINT LeftUpLeg
		{
			OFFSET 1.363060 -1.794630 0.839290
			CHANNELS 3 Zrotation Yrotation Xrotation
			JOINT LeftLeg
			{
				OFFSET 2.448110 -6.726130 0.000000
				CHANNELS 3 Zrotation Yrotation Xrotation
				JOINT LeftFoot
				{
					OFFSET 2.562200 -7.039590 0.000000
					CHANNELS 3 Zrotation Yrotation Xrotation
					JOINT LeftToeBase
					{
						OFFSET 0.157640 -0.433110 2.322550
						CHANNELS 3 Zrotation Yrotation Xrotation
						End Site
						{
							OFFSET 0.000000 0.000000 0.000000
						}
					}
				}
			}
		}
	}
	JOINT RHipJoint
	{
		OFFSET 0.000000 0.000000 0.000000
		CHANNELS 3 Zrotation Yrotation Xrotation
		JOINT RightUpLeg
		{
			OFFSET -1.305520 -1.794630 0.839290
			CHANNELS 3 Zrotation Yrotation Xrotation
			JOINT RightLeg
			{
				OFFSET -2.542530 -6.985550 0.000000
				CHANNELS 3 Zrotation Yrotation Xrotation
				JOINT RightFoot
				{
					OFFSET -2.568260 -7.056230 0.000000
					CHANNELS 3 Zrotation Yrotation Xrotation
					JOINT RightToeBase
					{
						OFFSET -0.164730 -0.452590 2.363150
						CHANNELS 3 Zrotation Yrotation Xrotation
						End Site
						{
							OFFSET 0.000000 0.000000 0.000000
						}
					}
				}
			}
		}
	}
}
MOTION
Frames: 22
Frame Time: 0.008333
2.726010 17.015287 1.434200 -34.042154 75.612650 -22.804511 -10.799431 -0.451121 4.476214 0.986733 2.154307 -44.333898 0.142137 1.122236 37.322171 3.612445 18.239236 -7.360729 0.897700 0.000000 -23.503900 6.411256 -2.496941 4.991383 23.636240 6.720651 -0.568288 4.898512 2.743170 -3.803110 0.211030 4.244060 -9.035082 179.998700 0.000000 -8.676100
2.889620 16.991671 1.452507 -34.225465 75.933139 -23.128142 -10.743893 -0.484684 4.500579 0.497328 2.365642 -44.767359 0.020994 0.984738 34.944773 3.412204 17.201715 -6.236307 1.224400 -0.000000 -24.507200 6.442492 -2.567625 4.754645 23.532231 6.048056 0.093107 4.869414 2.689935 -3.435371 0.195013 4.487065 -9.695402 -180.000000 -0.000000 -8.403400
3.054126 16.965885 1.468984 -34.528938 76.284466 -23.606453 -10.696396 -0.502116 4.511761 -0.055632 2.587439 -45.104851 -0.120822 0.846963 32.524623 3.180398 16.055004 -5.109227 1.495200 0.000000 -25.667700 6.477515 -2.644100 4.499735 23.418489 5.289806 0.810158 4.843840 2.635472 -3.108245 0.188068 4.783569 -10.297404 179.997400 0.000000 -8.052900
3.219145 16.938123 1.483919 -34.906480 76.665649 -24.205834 -10.654954 -0.505373 4.507370 -0.670168 2.806341 -45.322596 -0.284937 0.708221 30.077048 2.922233 14.819297 -4.022468 1.694600 0.000000 -26.862900 6.520242 -2.724838 4.218117 23.275888 4.420523 1.599735 4.820599 2.579222 -2.827272 0.193410 5.156097 -10.835563 179.989000 0.000000 -7.635100
3.385697 16.908112 1.496838 -35.445708 77.057044 -24.972119 -10.621468 -0.503648 4.500259 -1.306183 3.014906 -45.483149 -0.466576 0.567572 27.636552 2.645791 13.514905 -2.996751 1.821600 0.000000 -28.164200 6.558912 -2.808884 3.936540 23.134298 3.530725 2.425726 4.801644 2.526309 -2.598690 0.202131 5.541820 -11.324106 179.974500 0.000000 -7.233500
3.553288 16.876230 1.508422 -36.075614 77.461744 -25.851016 -10.591531 -0.497478 4.486830 -1.974220 3.209027 -45.563907 -0.667410 0.423490 25.210003 2.357158 12.161495 -2.069130 1.872300 -0.000000 -29.455400 6.600324 -2.895040 3.643552 22.967624 2.580595 3.301926 4.784664 2.474963 -2.420505 0.218936 5.968113 -11.758520 179.952299 0.000000 -6.813500
3.722825 16.842493 1.518572 -36.848762 77.865154 -26.860559 -10.565060 -0.492611 4.477555 -2.653675 3.391504 -45.621824 -0.884398 0.274298 22.817037 2.062945 10.772914 -1.252463 1.854500 -0.000001 -30.779200 6.636106 -2.982727 3.361663 22.798663 1.644189 4.192350 4.770243 2.428672 -2.289491 0.236335 6.379779 -12.155335 179.923600 -0.000000 -6.424300
3.894472 16.807291 1.527782 -37.730097 78.266018 -27.963074 -10.538702 -0.489508 4.473741 -3.354343 3.568310 -45.666569 -1.118279 0.117790 20.458326 1.767144 9.358036 -0.559690 1.775200 0.000000 -32.103900 6.668353 -3.071537 3.092558 22.618533 0.721476 5.088129 4.756827 2.387145 -2.199394 0.254705 6.774432 -12.516968 179.888900 0.000000 -6.028700
4.068555 16.771046 1.536339 -38.694943 78.661370 -29.126170 -10.510067 -0.488566 4.477863 -4.085749 3.747688 -45.714854 -1.369469 -0.048427 18.131842 1.472041 7.919123 0.008308 1.644100 0.000000 -33.409700 6.697139 -3.161223 2.842746 22.424742 -0.170504 5.974236 4.743148 2.350412 -2.142670 0.272762 7.138875 -12.846938 179.849800 -0.000000 -5.599800
4.245348 16.734182 1.544620 -39.703896 79.051163 -30.308977 -10.476387 -0.488938 4.490235 -4.862031 3.937275 -45.771447 -1.638358 -0.226526 15.832803 1.178323 6.453802 0.460546 1.470800 0.000000 -34.705301 6.724921 -3.251748 2.614399 22.208478 -1.030756 6.843174 4.727781 2.317725 -2.113591 0.291139 7.474148 -13.140872 179.807500 -0.000000 -5.077300
4.425102 16.697030 1.552747 -40.723145 79.434241 -31.477179 -10.435453 -0.490050 4.510527 -5.692721 4.142039 -45.838546 -1.923792 -0.417780 13.561483 0.885992 4.957389 0.814851 1.264600 -0.000000 -36.041900 6.753939 -3.343050 2.409277 21.963381 -1.857263 7.690294 4.709767 2.288201 -2.108411 0.311095 7.784305 -13.389663 179.763400 -0.000000 -4.385900
4.607593 16.660052 1.561155 -41.662753 79.818831 -32.558881 -10.383710 -0.489916 4.534034 -6.593025 4.357700 -45.884588 -2.223651 -0.622881 11.318555 0.595922 3.429699 1.083846 1.032701 -0.000000 -37.388300 6.793124 -3.435560 2.217236 21.656034 -2.693397 8.532065 4.686824 2.258883 -2.132786 0.340837 8.111865 -13.556771 179.716200 0.000000 -3.352700
4.792742 16.623483 1.569934 -42.462958 80.210199 -33.504022 -10.319321 -0.488281 4.558521 -7.559302 4.570438 -45.887312 -2.531453 -0.840456 9.118459 0.311143 1.881158 1.287032 0.784200 0.000000 -38.809700 6.847853 -3.528963 2.033136 21.265675 -3.557163 9.382033 4.657340 2.228322 -2.195615 0.386309 8.481916 -13.615135 179.664900 -0.000000 -1.898800
4.980775 16.587388 1.578634 -43.150612 80.596857 -34.331757 -10.245344 -0.489246 4.585921 -8.553515 4.766068 -45.853872 -2.836405 -1.066538 7.001534 0.036187 0.325558 1.427318 0.526900 0.000000 -40.305700 6.912663 -3.622972 1.863664 20.813266 -4.408878 10.241064 4.622535 2.196627 -2.299044 0.446621 8.876288 -13.556208 179.612400 0.000000 -0.083700
5.171262 16.551900 1.587384 -43.666250 80.985506 -34.997903 -10.161260 -0.492415 4.613857 -9.548428 4.914970 -45.749483 -3.127085 -1.295544 5.004369 -0.221212 -1.200221 1.501376 0.272101 0.000000 -41.867600 6.994382 -3.717832 1.697340 20.273325 -5.285108 11.134556 4.580847 2.161407 -2.461934 0.532155 9.334548 -13.329289 -0.442101 0.000000 -2.267900
5.363987 16.517058 1.596061 -44.015124 81.372550 -35.508665 -10.070413 -0.499295 4.643230 -10.495846 4.990253 -45.565088 -3.390806 -1.519562 3.178587 -0.452817 -2.652086 1.496274 0.032300 -0.000001 -43.455200 7.091044 -3.813152 1.532826 19.653404 -6.173004 12.076214 4.532363 2.122175 -2.696740 0.646650 9.855121 -12.911867 -0.496000 -0.000000 -5.140600
5.558719 16.482918 1.604683 -44.196977 81.756583 -35.866871 -9.975765 -0.508559 4.675234 -11.352656 4.968490 -45.292278 -3.617261 -1.729597 1.575363 -0.650968 -3.979484 1.395886 -0.178800 -0.000000 -45.006401 7.201545 -3.909736 1.364919 18.956861 -7.069673 13.043595 4.478653 2.070332 -2.938791 0.789257 10.442025 -12.311376 -0.545000 -0.000000 -8.573400
5.755456 16.449569 1.612965 -44.290049 82.122750 -36.149114 -9.883036 -0.516290 4.716971 -12.074408 4.846651 -44.952007 -3.799552 -1.915604 0.255296 -0.811847 -5.145926 1.185150 -0.350300 -0.000000 -46.455300 7.307703 -4.010691 1.178407 18.239513 -7.904774 13.649198 4.442324 1.928856 -2.328266 0.875120 11.055520 -12.010332 -0.583000 -0.000000 -12.151101
5.954059 16.417140 1.621125 -44.312251 82.476615 -36.363396 -9.795973 -0.521929 4.761362 -12.648175 4.620532 -44.555612 -3.936515 -2.068220 -0.740384 -0.932946 -6.114022 0.864581 -0.474099 0.000000 -47.739800 7.415673 -4.110036 0.995770 17.498828 -8.677175 14.230230 4.402937 1.769410 -1.618959 0.963445 11.671430 -11.603730 -0.603500 0.000000 -15.960700
6.154665 16.385804 1.629293 -44.312926 82.816590 -36.552252 -9.717988 -0.521069 4.807016 -13.071463 4.300010 -44.126642 -4.029954 -2.179561 -1.379202 -1.014679 -6.859112 0.450238 -0.547901 -0.000000 -48.817800 7.520283 -4.206585 0.823729 16.762955 -9.352872 14.786138 4.359321 1.595068 -0.820466 1.048359 12.249936 -11.109695 -0.601099 0.000000 -19.811301
6.357486 16.355818 1.637614 -44.333303 83.143804 -36.750284 -9.651329 -0.508729 4.853311 -13.354005 3.896300 -43.687137 -4.083387 -2.244237 -1.649583 -1.058627 -7.360339 -0.021683 -0.575200 0.000000 -49.666900 7.617929 -4.299418 0.668528 16.056089 -9.905962 15.314814 4.310015 1.409143 0.054713 1.125099 12.753927 -10.546583 -0.572200 -0.000000 -23.509600
6.562820 16.327434 1.646342 -44.391777 83.461288 -36.971126 -9.597036 -0.480102 4.900054 -13.514523 3.420653 -43.252734 -4.100507 -2.259571 -1.562978 -1.066831 -7.598944 -0.496140 -0.563900 -0.000000 -50.278700 7.706649 -4.387276 0.535417 15.396998 -10.317121 15.816123 4.253223 1.215319 0.991001 1.189659 13.148337 -9.936245 -0.516200 0.000000 -26.915000
